<?xml version="1.0" encoding="utf-8"?>
<!-- Generator: Adobe Illustrator 26.3.1, SVG Export Plug-In . SVG Version: 6.00 Build 0)  -->
<svg version="1.1" id="Layer_1" xmlns="http://www.w3.org/2000/svg" xmlns:xlink="http://www.w3.org/1999/xlink" x="0px" y="0px"
	 viewBox="0 0 418.9 222.9" style="enable-background:new 0 0 418.9 222.9;" xml:space="preserve">
<g id="Layer_2_00000090289591949588968190000007710721089280313521_">
	<g id="Layer_1-2">
		<path d="M14.8,4l1.1,3.4L10.9,9l3.2,4.6l-3,2.1L8,11.4l-3.3,4.4l-3-2.1L4.9,9L0,7.5L1.1,4l4.8,1.6V0h4v5.6L14.8,4z"/>
		<path d="M62.2,30.8h10.4v7H62.2v10.3h-7V37.8H44.9v-7h10.3V20.4h7V30.8z"/>
		<path d="M139.6,17.1c2.8,5.5,5.6,11,8.5,16.4c2.8,5.4,5.7,10.9,8.5,16.4c-0.8,0.4-1.7,0.8-2.5,1.2s-1.7,0.8-2.5,1.2
			c-2.4-4.6-4.7-9.2-7.1-13.7s-4.7-9.1-7.1-13.8c-2.3,4.7-4.6,9.2-6.9,13.8s-4.6,9.1-6.8,13.8c-0.9-0.4-1.7-0.8-2.6-1.2l-2.6-1.2
			c2.8-5.5,5.7-11,8.5-16.4c2.8-5.4,5.6-10.9,8.5-16.4L139.6,17.1z"/>
		<path d="M211.9,17.1c2.8,5.5,5.6,11,8.5,16.4c2.8,5.4,5.6,10.9,8.5,16.4c-0.8,0.4-1.7,0.8-2.5,1.2s-1.7,0.8-2.5,1.2
			c-2.4-4.6-4.7-9.2-7.1-13.7s-4.7-9.1-7.1-13.8c-2.3,4.7-4.6,9.2-6.9,13.8s-4.6,9.1-6.8,13.8c-0.9-0.4-1.7-0.8-2.6-1.2l-2.6-1.2
			c2.8-5.5,5.7-11,8.5-16.4s5.6-10.9,8.5-16.4L211.9,17.1z"/>
		<path d="M323.6,27.5h20l-16.2,12.1l6,19.2l-16.3-11.6l-16.6,11.6l6.2-19.2l-16.3-12.1h20.3l6.4-19L323.6,27.5z M317.1,22.3
			l-3.1,9.5h-10.2l8.1,6.1l-3.2,9.4l8.4-5.8l8.1,5.8l-2.9-9.4l8-6.1h-10L317.1,22.3z"/>
		<path d="M44.4,85.6h16.8L47.6,95.7l5.1,16.1L39,102.1l-14,9.7l5.2-16.1L16.5,85.6h17.1L39,69.6L44.4,85.6z M38.9,81.2l-2.6,8h-8.6
			l6.8,5.1l-2.7,7.9l7-4.8l6.8,4.8l-2.4-7.9l6.7-5.2h-8.5L38.9,81.2z"/>
		<path d="M114.9,69.2c-3.8,6.7-5.7,14.2-5.7,21.8c0,7.6,2,15.1,5.7,21.6h-6.4c-1.9-3.3-3.4-6.8-4.4-10.5c-1-3.6-1.5-7.4-1.5-11.1
			c0-3.8,0.5-7.5,1.5-11.1c1-3.7,2.5-7.3,4.4-10.7L114.9,69.2z"/>
		<path d="M144.9,70.1h6.9l-6.4,7.8h-5.6L144.9,70.1z"/>
		<path d="M208,73.1c-1.8,5.8-3.6,11.7-5.4,17.4s-3.6,11.5-5.4,17.3H188l-10.6-34.8h7.4c0.4,1.6,0.9,3.2,1.4,4.9
			c0.5,1.6,0.9,3.3,1.4,4.9h9.7c0.5-1.6,1-3.2,1.4-4.9s1-3.3,1.5-4.9H208z M192.4,102.6c0.1-0.9,0.3-1.9,0.4-2.9
			c0.2-1,0.4-2,0.7-2.9l2.7-8.5h-7.7c0.4,1.4,0.9,2.8,1.3,4.2s0.8,2.8,1.3,4.2c0.2,0.9,0.5,1.9,0.6,3s0.3,2,0.4,2.9L192.4,102.6z"/>
		<path d="M225.5,77.4h-3.2l-6.2-6.7h5.2L225.5,77.4z"/>
		<path d="M238.5,69.2c1.9,3.4,3.4,7,4.4,10.7c1,3.6,1.5,7.4,1.5,11.1c0,3.7-0.5,7.5-1.5,11.1c-1,3.7-2.5,7.2-4.4,10.5H232
			c5.7-9.9,7.2-21.7,4.3-32.8c-1-3.7-2.4-7.3-4.3-10.7H238.5z"/>
		<path d="M254.3,104c5.4-3,10-7.2,13.6-12.3c3.8-5.4,6.6-11.5,8.2-18l5.8,2c-1.8,7.2-4.9,14-9.1,20.2c-3.7,5.4-8.5,10-14.2,13.3
			L254.3,104z"/>
		<path d="M368.1,88.3h8.7v5.9h-8.7v8.7h-5.9v-8.7h-8.7v-5.9h8.7v-8.7h5.9V88.3z"/>
		<path d="M79,67.7c-0.6,6.2,0.1,12.4,2.2,18.2c2.3,6.2,5.7,12,10,17l-5,3.6c-4.8-5.6-8.6-12.1-11.2-19c-2.3-6.1-3.2-12.7-2.7-19.2
			L79,67.7z"/>
		<path d="M126.4,127.6c-5.7,10-7.2,21.8-4.4,32.8c1,3.7,2.4,7.3,4.4,10.6h-6.5c-1.9-3.3-3.4-6.8-4.4-10.5c-1-3.6-1.5-7.3-1.5-11.1
			c0-3.8,0.5-7.5,1.5-11.1c1-3.7,2.5-7.3,4.4-10.7L126.4,127.6z"/>
		<path d="M336.9,143.9h16.9l-13.6,10.2l5.1,16.1l-13.7-9.7l-14,9.7l5.2-16.1l-13.7-10.2h17.1l5.4-16L336.9,143.9z M331.5,139.6
			l-2.6,8h-8.6l6.8,5.1l-2.7,7.9l7-4.8l6.8,4.8l-2.4-7.9l6.7-5.1h-8.4L331.5,139.6z"/>
		<path d="M81.9,204.9h8.7v5.9h-8.7v8.7H76v-8.7h-8.7v-5.9H76v-8.7h5.9V204.9z"/>
		<path d="M126.3,185.8h6.4v22.4c0,3.3,0.5,5.6,1.6,6.9s2.9,2,5.5,2c2,0.1,3.9-0.5,5.5-1.6c1.3-1.1,1.9-3.5,1.9-7.3V206h6.4v3.1
			c0,4.6-1.2,8-3.6,10.3c-2.4,2.2-5.7,3.3-9.9,3.3c-5,0-8.5-1.2-10.6-3.7c-2.1-2.5-3.2-5.8-3.2-10.2L126.3,185.8z"/>
		<path d="M185,186.6h7l-6.4,7.8H180L185,186.6z"/>
		<path d="M267.4,212h-9.5v-5.4h9.5l-4.5-8.4l4.8-2.5l4.3,7.9l4.3-7.9l4.8,2.5l-4.5,8.4h9.6v5.4h-9.5l4.5,8.4l-4.8,2.6l-4.3-7.9
			l-4.2,7.9l-4.8-2.6L267.4,212z"/>
		<path d="M410.2,204.9h8.7v5.9h-8.7v8.7h-5.9v-8.7h-8.7v-5.9h8.7v-8.7h5.9V204.9z"/>
		<path d="M222.1,139c1.6,0,3.1,0.3,4.6,0.9c2.8,1.2,5.1,3.5,6.2,6.3c0.6,1.4,0.9,3,0.9,4.6v16.9c0,1.6-0.3,3.1-0.9,4.6
			c-0.6,1.4-1.5,2.6-2.5,3.7c-1.1,1.1-2.3,1.9-3.7,2.5c-1.4,0.6-3,0.9-4.6,0.9h-4.6c-1.6,0-3.1-0.3-4.6-0.9
			c-1.4-0.6-2.7-1.4-3.7-2.5c-1.1-1.1-1.9-2.3-2.5-3.7c-0.6-1.4-0.9-3-0.9-4.6v-16.9c0-1.6,0.3-3.1,0.9-4.6c1.2-2.8,3.4-5.1,6.2-6.3
			c1.4-0.6,3-0.9,4.6-0.9H222.1z M226.5,151.1c0-1.3-0.4-2.6-1.2-3.6c-0.8-1-2-1.6-3.3-1.5h-4.5c-1.3-0.1-2.5,0.5-3.3,1.5
			c-0.8,1-1.2,2.3-1.2,3.6v16.1c0,1.3,0.4,2.6,1.2,3.6c0.8,1,2,1.5,3.3,1.5h4.5c1.3,0.1,2.5-0.5,3.3-1.5c0.8-1,1.2-2.3,1.2-3.6
			L226.5,151.1z"/>
	</g>
</g>
</svg>
